<svg width="227" height="92" viewBox="0 0 227 92" fill="none" xmlns="http://www.w3.org/2000/svg">
<path d="M24.4914 8.70067C21.837 9.62447 22.1194 9.4071 10.8805 20.3297C3.70796 27.2853 1.56184 29.6763 0.771164 31.7413C-0.471325 34.9474 -0.188942 39.5121 1.44888 42.6095C4.3292 48.098 12.4054 50.7607 18.166 48.2066C21.0463 46.9025 39.9096 28.9699 41.3215 26.0898C42.7334 23.3184 42.7899 18.1017 41.378 15.5476C39.7401 12.4502 37.0857 10.1679 33.8666 9.02671C30.365 7.77687 27.5412 7.66819 24.4914 8.70067ZM34.5443 15.0042C36.9163 17.2322 37.8764 19.8406 37.3681 22.5033C37.0293 24.1335 35.3349 26.1442 27.88 33.4802C22.8536 38.4252 17.9966 42.8812 17.0365 43.3703C13.422 45.4353 8.33905 44.0767 6.0235 40.4359C4.66806 38.3166 4.55511 34.6214 5.68464 32.5021C6.13646 31.687 10.824 26.9049 16.1328 21.8512L25.7339 12.7219L29.179 12.9393C32.1158 13.1566 32.85 13.4283 34.5443 15.0042Z" fill="#067DE8"/>
<path d="M20.7075 24.0792C18.9002 24.7856 15.7375 27.557 15.0598 29.0786C13.5349 32.6651 18.8437 37.121 21.2722 34.2953C21.8935 33.5889 21.7805 33.1541 20.7639 31.7956C19.5214 30.2197 19.5214 30.111 20.4816 29.0786C21.724 27.7744 22.2888 27.7744 23.9266 29.2416C25.1691 30.3827 25.2256 30.3827 26.3551 29.4046C27.88 28.1004 27.7671 27.4483 25.9598 25.7638C24.2655 24.2422 22.1194 23.5358 20.7075 24.0792Z" fill="#067DE8"/>
<path d="M56.7784 39V9.90909H62.0483V34.5824H74.8608V39H56.7784ZM84.7045 9.90909V39H79.4347V9.90909H84.7045ZM114.317 9.90909V39H109.63L95.9226 19.1847H95.6811V39H90.4112V9.90909H95.1271L108.82 29.7386H109.076V9.90909H114.317ZM120.06 39V9.90909H125.33V23.2756H125.685L137.034 9.90909H143.469L132.219 22.9631L143.568 39H137.233L128.554 26.5284L125.33 30.3352V39H120.06Z" fill="#0A3C63"/>
<path d="M154.818 39.4261C152.687 39.4261 150.841 38.9574 149.278 38.0199C147.716 37.0824 146.504 35.7708 145.642 34.0852C144.79 32.3996 144.364 30.4299 144.364 28.1761C144.364 25.9223 144.79 23.9479 145.642 22.2528C146.504 20.5578 147.716 19.2415 149.278 18.304C150.841 17.3665 152.687 16.8977 154.818 16.8977C156.949 16.8977 158.795 17.3665 160.358 18.304C161.92 19.2415 163.128 20.5578 163.98 22.2528C164.842 23.9479 165.273 25.9223 165.273 28.1761C165.273 30.4299 164.842 32.3996 163.98 34.0852C163.128 35.7708 161.92 37.0824 160.358 38.0199C158.795 38.9574 156.949 39.4261 154.818 39.4261ZM154.847 35.3068C156.002 35.3068 156.968 34.9896 157.744 34.3551C158.521 33.7112 159.098 32.8494 159.477 31.7699C159.866 30.6903 160.06 29.4877 160.06 28.1619C160.06 26.8267 159.866 25.6193 159.477 24.5398C159.098 23.4508 158.521 22.5843 157.744 21.9403C156.968 21.2964 156.002 20.9744 154.847 20.9744C153.663 20.9744 152.678 21.2964 151.892 21.9403C151.116 22.5843 150.533 23.4508 150.145 24.5398C149.766 25.6193 149.577 26.8267 149.577 28.1619C149.577 29.4877 149.766 30.6903 150.145 31.7699C150.533 32.8494 151.116 33.7112 151.892 34.3551C152.678 34.9896 153.663 35.3068 154.847 35.3068ZM169.637 39V17.1818H174.623V20.8182H174.85C175.248 19.5587 175.93 18.5881 176.896 17.9062C177.871 17.215 178.984 16.8693 180.234 16.8693C180.518 16.8693 180.835 16.8835 181.185 16.9119C181.545 16.9309 181.844 16.964 182.08 17.0114V21.7415C181.862 21.6657 181.517 21.5994 181.043 21.5426C180.579 21.4763 180.129 21.4432 179.694 21.4432C178.756 21.4432 177.914 21.6468 177.165 22.054C176.427 22.4517 175.844 23.0057 175.418 23.7159C174.992 24.4261 174.779 25.2453 174.779 26.1733V39H169.637ZM191.384 39.4403C190.002 39.4403 188.756 39.1941 187.648 38.7017C186.55 38.1998 185.679 37.4612 185.035 36.4858C184.4 35.5104 184.083 34.3078 184.083 32.8778C184.083 31.6468 184.31 30.6288 184.765 29.8239C185.219 29.0189 185.84 28.375 186.626 27.892C187.412 27.4091 188.297 27.0445 189.282 26.7983C190.276 26.5426 191.304 26.358 192.364 26.2443C193.643 26.1117 194.68 25.9934 195.475 25.8892C196.271 25.7756 196.848 25.6051 197.208 25.3778C197.577 25.1411 197.762 24.7765 197.762 24.2841V24.1989C197.762 23.1288 197.445 22.3002 196.81 21.7131C196.176 21.1259 195.262 20.8324 194.069 20.8324C192.809 20.8324 191.81 21.107 191.072 21.6562C190.343 22.2055 189.85 22.8542 189.594 23.6023L184.793 22.9205C185.172 21.5947 185.797 20.4867 186.668 19.5966C187.54 18.697 188.605 18.0246 189.864 17.5795C191.124 17.125 192.516 16.8977 194.04 16.8977C195.092 16.8977 196.138 17.0208 197.18 17.267C198.221 17.5133 199.173 17.9205 200.035 18.4886C200.897 19.0473 201.588 19.8097 202.109 20.7756C202.639 21.7415 202.904 22.9489 202.904 24.3977V39H197.961V36.0028H197.79C197.478 36.6089 197.038 37.1771 196.469 37.7074C195.911 38.2282 195.205 38.6496 194.353 38.9716C193.51 39.2841 192.521 39.4403 191.384 39.4403ZM192.719 35.6619C193.752 35.6619 194.647 35.4583 195.404 35.0511C196.162 34.6345 196.744 34.0852 197.151 33.4034C197.568 32.7216 197.776 31.9782 197.776 31.1733V28.6023C197.615 28.7348 197.341 28.858 196.952 28.9716C196.574 29.0852 196.147 29.1847 195.674 29.2699C195.201 29.3551 194.732 29.4309 194.268 29.4972C193.804 29.5634 193.401 29.6203 193.06 29.6676C192.293 29.7718 191.607 29.9422 191.001 30.179C190.395 30.4157 189.916 30.7472 189.566 31.1733C189.216 31.59 189.04 32.1297 189.04 32.7926C189.04 33.7396 189.386 34.4545 190.077 34.9375C190.769 35.4205 191.649 35.6619 192.719 35.6619Z" fill="#0F8AEB"/>
<path d="M65.9581 54.0454V67.1364H63.8487L57.6804 58.2194H57.5717V67.1364H55.2003V54.0454H57.3224L63.4844 62.9687H63.5994V54.0454H65.9581ZM72.7864 67.3281C71.802 67.3281 70.9519 67.1236 70.236 66.7145C69.5243 66.3011 68.9767 65.7173 68.5932 64.9631C68.2097 64.2045 68.0179 63.3118 68.0179 62.2848C68.0179 61.2748 68.2097 60.3885 68.5932 59.6257C68.981 58.8587 69.5222 58.2621 70.2168 57.8359C70.9114 57.4055 71.7274 57.1903 72.6649 57.1903C73.2701 57.1903 73.8411 57.2883 74.378 57.4844C74.9192 57.6761 75.3965 57.9744 75.8098 58.3793C76.2274 58.7841 76.5556 59.2997 76.7942 59.9261C77.0328 60.5483 77.1522 61.2898 77.1522 62.1506V62.8601H69.1046V61.3004H74.9341C74.9299 60.8572 74.834 60.4631 74.6465 60.1179C74.459 59.7685 74.1969 59.4936 73.8603 59.2933C73.5279 59.093 73.1401 58.9929 72.6969 58.9929C72.2239 58.9929 71.8084 59.1079 71.4505 59.3381C71.0925 59.5639 70.8134 59.8622 70.6131 60.2329C70.4171 60.5994 70.3169 61.0021 70.3127 61.441V62.8025C70.3127 63.3736 70.4171 63.8636 70.6259 64.2727C70.8347 64.6775 71.1266 64.9886 71.5016 65.206C71.8766 65.419 72.3155 65.5256 72.8184 65.5256C73.155 65.5256 73.4597 65.4787 73.7324 65.3849C74.0051 65.2869 74.2417 65.1442 74.4419 64.9567C74.6422 64.7692 74.7935 64.5369 74.8958 64.2599L77.0563 64.5028C76.9199 65.0739 76.66 65.5724 76.2765 65.9986C75.8972 66.4204 75.4114 66.7486 74.8191 66.9829C74.2267 67.2131 73.5492 67.3281 72.7864 67.3281ZM84.0124 57.3182V59.1079H78.3683V57.3182H84.0124ZM79.7617 54.9659H82.0756V64.1832C82.0756 64.4943 82.1225 64.7329 82.2163 64.8991C82.3143 65.0611 82.4421 65.1719 82.5998 65.2315C82.7575 65.2912 82.9322 65.321 83.1239 65.321C83.2688 65.321 83.4009 65.3104 83.5202 65.2891C83.6438 65.2677 83.7376 65.2486 83.8015 65.2315L84.1914 67.0405C84.0678 67.0831 83.891 67.13 83.6609 67.1811C83.435 67.2322 83.158 67.2621 82.8299 67.2706C82.2504 67.2876 81.7283 67.2003 81.2638 67.0085C80.7994 66.8125 80.4308 66.5099 80.158 66.1008C79.8896 65.6918 79.7575 65.1804 79.7617 64.5668V54.9659ZM87.9739 67.1364L85.1997 57.3182H87.5584L89.2843 64.2216H89.3738L91.138 57.3182H93.4711L95.2353 64.1832H95.3311L97.0314 57.3182H99.3965L96.6159 67.1364H94.2061L92.3652 60.5014H92.231L90.3901 67.1364H87.9739ZM105.013 67.3281C104.055 67.3281 103.224 67.1172 102.521 66.6953C101.817 66.2734 101.272 65.6832 100.884 64.9247C100.501 64.1662 100.309 63.2798 100.309 62.2656C100.309 61.2514 100.501 60.3629 100.884 59.6001C101.272 58.8373 101.817 58.245 102.521 57.8231C103.224 57.4013 104.055 57.1903 105.013 57.1903C105.972 57.1903 106.803 57.4013 107.506 57.8231C108.21 58.245 108.753 58.8373 109.136 59.6001C109.524 60.3629 109.718 61.2514 109.718 62.2656C109.718 63.2798 109.524 64.1662 109.136 64.9247C108.753 65.6832 108.21 66.2734 107.506 66.6953C106.803 67.1172 105.972 67.3281 105.013 67.3281ZM105.026 65.4744C105.546 65.4744 105.981 65.3317 106.33 65.0462C106.68 64.7564 106.94 64.3686 107.11 63.8828C107.285 63.397 107.372 62.8558 107.372 62.2592C107.372 61.6584 107.285 61.115 107.11 60.6293C106.94 60.1392 106.68 59.7493 106.33 59.4595C105.981 59.1697 105.546 59.0248 105.026 59.0248C104.494 59.0248 104.05 59.1697 103.697 59.4595C103.347 59.7493 103.085 60.1392 102.911 60.6293C102.74 61.115 102.655 61.6584 102.655 62.2592C102.655 62.8558 102.74 63.397 102.911 63.8828C103.085 64.3686 103.347 64.7564 103.697 65.0462C104.05 65.3317 104.494 65.4744 105.026 65.4744ZM111.682 67.1364V57.3182H113.926V58.9545H114.028C114.207 58.3878 114.514 57.951 114.948 57.6442C115.387 57.3331 115.888 57.1775 116.45 57.1775C116.578 57.1775 116.721 57.1839 116.879 57.1967C117.041 57.2052 117.175 57.2202 117.281 57.2415V59.37C117.183 59.3359 117.028 59.3061 116.815 59.2805C116.606 59.2507 116.404 59.2358 116.208 59.2358C115.786 59.2358 115.406 59.3274 115.07 59.5106C114.737 59.6896 114.475 59.9389 114.284 60.2585C114.092 60.5781 113.996 60.9467 113.996 61.3643V67.1364H111.682ZM120.928 64.0554L120.922 61.2621H121.292L124.821 57.3182H127.525L123.184 62.1506H122.705L120.928 64.0554ZM118.819 67.1364V54.0454H121.133V67.1364H118.819ZM124.981 67.1364L121.785 62.6683L123.344 61.0383L127.748 67.1364H124.981ZM136.827 59.9133L134.717 60.1435C134.658 59.9304 134.553 59.7301 134.404 59.5426C134.259 59.3551 134.063 59.2038 133.816 59.0888C133.569 58.9737 133.266 58.9162 132.908 58.9162C132.427 58.9162 132.022 59.0206 131.694 59.2294C131.37 59.4382 131.21 59.7088 131.214 60.0412C131.21 60.3267 131.315 60.5589 131.528 60.7379C131.745 60.9169 132.103 61.0639 132.602 61.179L134.276 61.5369C135.205 61.7372 135.896 62.0547 136.347 62.4893C136.803 62.924 137.033 63.4929 137.038 64.196C137.033 64.8139 136.852 65.3594 136.494 65.8324C136.141 66.3011 135.648 66.6676 135.018 66.9318C134.387 67.196 133.663 67.3281 132.844 67.3281C131.643 67.3281 130.675 67.0767 129.942 66.5739C129.21 66.0668 128.773 65.3615 128.632 64.4581L130.888 64.2408C130.991 64.6839 131.208 65.0185 131.54 65.2443C131.873 65.4702 132.305 65.5831 132.838 65.5831C133.388 65.5831 133.829 65.4702 134.161 65.2443C134.498 65.0185 134.666 64.7393 134.666 64.4069C134.666 64.1257 134.558 63.8935 134.34 63.7102C134.127 63.527 133.795 63.3864 133.343 63.2883L131.668 62.9368C130.727 62.7408 130.03 62.4105 129.578 61.946C129.126 61.4773 128.903 60.8849 128.907 60.169C128.903 59.5639 129.067 59.0398 129.399 58.5966C129.736 58.1491 130.202 57.804 130.799 57.5611C131.4 57.3139 132.092 57.1903 132.876 57.1903C134.027 57.1903 134.933 57.4354 135.593 57.9254C136.258 58.4155 136.669 59.0781 136.827 59.9133ZM143.513 67.1364V54.0454H145.884V65.1484H151.65V67.1364H143.513ZM153.606 67.1364V57.3182H155.92V67.1364H153.606ZM154.769 55.9247C154.403 55.9247 154.087 55.8033 153.823 55.5604C153.559 55.3132 153.427 55.017 153.427 54.6719C153.427 54.3224 153.559 54.0263 153.823 53.7834C154.087 53.5362 154.403 53.4126 154.769 53.4126C155.14 53.4126 155.455 53.5362 155.715 53.7834C155.979 54.0263 156.112 54.3224 156.112 54.6719C156.112 55.017 155.979 55.3132 155.715 55.5604C155.455 55.8033 155.14 55.9247 154.769 55.9247ZM158.299 67.1364V57.3182H160.511V58.9865H160.626C160.83 58.424 161.169 57.9851 161.642 57.6697C162.115 57.3501 162.68 57.1903 163.336 57.1903C164.001 57.1903 164.561 57.3523 165.017 57.6761C165.477 57.9957 165.801 58.4325 165.989 58.9865H166.091C166.308 58.441 166.675 58.0064 167.191 57.6825C167.71 57.3544 168.326 57.1903 169.038 57.1903C169.941 57.1903 170.678 57.4758 171.249 58.0469C171.82 58.6179 172.106 59.451 172.106 60.5462V67.1364H169.786V60.9041C169.786 60.2947 169.624 59.8494 169.3 59.5682C168.976 59.2827 168.58 59.1399 168.111 59.1399C167.553 59.1399 167.116 59.3146 166.801 59.6641C166.49 60.0092 166.334 60.4588 166.334 61.0128V67.1364H164.065V60.8082C164.065 60.3011 163.911 59.8963 163.605 59.5937C163.302 59.2912 162.906 59.1399 162.416 59.1399C162.083 59.1399 161.781 59.2251 161.508 59.3956C161.235 59.5618 161.018 59.7983 160.856 60.1051C160.694 60.4077 160.613 60.7614 160.613 61.1662V67.1364H158.299ZM174.453 67.1364V57.3182H176.767V67.1364H174.453ZM175.617 55.9247C175.25 55.9247 174.935 55.8033 174.671 55.5604C174.407 55.3132 174.275 55.017 174.275 54.6719C174.275 54.3224 174.407 54.0263 174.671 53.7834C174.935 53.5362 175.25 53.4126 175.617 53.4126C175.988 53.4126 176.303 53.5362 176.563 53.7834C176.827 54.0263 176.959 54.3224 176.959 54.6719C176.959 55.017 176.827 55.3132 176.563 55.5604C176.303 55.8033 175.988 55.9247 175.617 55.9247ZM184.05 57.3182V59.1079H178.405V57.3182H184.05ZM179.799 54.9659H182.113V64.1832C182.113 64.4943 182.16 64.7329 182.253 64.8991C182.351 65.0611 182.479 65.1719 182.637 65.2315C182.795 65.2912 182.969 65.321 183.161 65.321C183.306 65.321 183.438 65.3104 183.557 65.2891C183.681 65.2677 183.775 65.2486 183.839 65.2315L184.229 67.0405C184.105 67.0831 183.928 67.13 183.698 67.1811C183.472 67.2322 183.195 67.2621 182.867 67.2706C182.287 67.2876 181.765 67.2003 181.301 67.0085C180.836 66.8125 180.468 66.5099 180.195 66.1008C179.927 65.6918 179.795 65.1804 179.799 64.5668V54.9659ZM190.226 67.3281C189.241 67.3281 188.391 67.1236 187.675 66.7145C186.964 66.3011 186.416 65.7173 186.033 64.9631C185.649 64.2045 185.457 63.3118 185.457 62.2848C185.457 61.2748 185.649 60.3885 186.033 59.6257C186.42 58.8587 186.962 58.2621 187.656 57.8359C188.351 57.4055 189.167 57.1903 190.104 57.1903C190.71 57.1903 191.281 57.2883 191.817 57.4844C192.359 57.6761 192.836 57.9744 193.249 58.3793C193.667 58.7841 193.995 59.2997 194.234 59.9261C194.472 60.5483 194.592 61.2898 194.592 62.1506V62.8601H186.544V61.3004H192.374C192.369 60.8572 192.273 60.4631 192.086 60.1179C191.898 59.7685 191.636 59.4936 191.3 59.2933C190.967 59.093 190.58 58.9929 190.136 58.9929C189.663 58.9929 189.248 59.1079 188.89 59.3381C188.532 59.5639 188.253 59.8622 188.053 60.2329C187.857 60.5994 187.756 61.0021 187.752 61.441V62.8025C187.752 63.3736 187.857 63.8636 188.065 64.2727C188.274 64.6775 188.566 64.9886 188.941 65.206C189.316 65.419 189.755 65.5256 190.258 65.5256C190.594 65.5256 190.899 65.4787 191.172 65.3849C191.445 65.2869 191.681 65.1442 191.881 64.9567C192.082 64.7692 192.233 64.5369 192.335 64.2599L194.496 64.5028C194.359 65.0739 194.099 65.5724 193.716 65.9986C193.337 66.4204 192.851 66.7486 192.259 66.9829C191.666 67.2131 190.989 67.3281 190.226 67.3281ZM200.193 67.3089C199.421 67.3089 198.731 67.1108 198.122 66.7145C197.512 66.3182 197.031 65.7429 196.677 64.9886C196.323 64.2344 196.146 63.3182 196.146 62.24C196.146 61.1491 196.325 60.2287 196.683 59.4787C197.046 58.7244 197.534 58.1555 198.147 57.772C198.761 57.3842 199.445 57.1903 200.199 57.1903C200.774 57.1903 201.247 57.2883 201.618 57.4844C201.989 57.6761 202.283 57.9084 202.5 58.1811C202.718 58.4496 202.886 58.7031 203.005 58.9418H203.101V54.0454H205.421V67.1364H203.146V65.5895H203.005C202.886 65.8281 202.713 66.0817 202.487 66.3501C202.262 66.6143 201.963 66.8402 201.593 67.0277C201.222 67.2152 200.755 67.3089 200.193 67.3089ZM200.838 65.4105C201.328 65.4105 201.746 65.2784 202.091 65.0142C202.436 64.7457 202.698 64.3729 202.877 63.8956C203.056 63.4183 203.146 62.8622 203.146 62.2273C203.146 61.5923 203.056 61.0405 202.877 60.5717C202.703 60.103 202.443 59.7386 202.097 59.4787C201.757 59.2187 201.337 59.0888 200.838 59.0888C200.323 59.0888 199.892 59.223 199.547 59.4915C199.202 59.7599 198.942 60.1307 198.767 60.6037C198.593 61.0767 198.505 61.6179 198.505 62.2273C198.505 62.8409 198.593 63.3885 198.767 63.87C198.946 64.3473 199.208 64.7244 199.553 65.0014C199.903 65.2741 200.331 65.4105 200.838 65.4105Z" fill="#686868"/>
</svg>
